<?xml version="1.0" encoding="utf-8"?>
<!-- Generator: Adobe Illustrator 15.0.0, SVG Export Plug-In . SVG Version: 6.00 Build 0)  -->
<!DOCTYPE svg PUBLIC "-//W3C//DTD SVG 1.1//EN" "http://www.w3.org/Graphics/SVG/1.1/DTD/svg11.dtd">
<svg version="1.1" id="Ebene_1" xmlns="http://www.w3.org/2000/svg" xmlns:xlink="http://www.w3.org/1999/xlink" x="0px" y="0px"
	 width="850.39px" height="850.39px" viewBox="0 0 850.39 850.39" enable-background="new 0 0 850.39 850.39" xml:space="preserve">
<path fill-rule="evenodd" clip-rule="evenodd" fill="#00ADBA" d="M343.04,143.56c-1.466,4.054-3.222,7.818-4.56,12
	c-1.046,0.386-2.089-1.649-3.12-2.64c-7.524-7.229-16.274-13.8-26.16-19.2c-11.004-6.011-26.021-10.802-42-6.96
	c-26.81,6.447-39.661,30.335-50.88,52.8c-13.697-15.747-29.123-33.4-49.68-44.16c-6.78-3.548-15.838-6.745-24.96-6.24
	c-12.375,0.685-20.096,7.522-26.16,15.12c-6.323,7.923-10.3,17.334-13.68,27.6c-3.465-1.815-7.166-3.394-9.6-6.24
	c7.512-26.533,20.56-53.02,49.2-58.56c17.359-3.358,32.994,2.907,43.92,8.4c9.799,4.926,19.625,11.615,28.56,18.48
	c0.822,0.632,3.319,3.117,3.6,3.12c0.924,0.01,3.446-3.931,4.56-5.52c10.48-14.951,21.199-31.951,47.76-30.48
	c16.327,0.904,30.387,9.367,41.28,16.56C323.082,125.539,333.836,134.507,343.04,143.56z"/>
<path fill-rule="evenodd" clip-rule="evenodd" fill="#00ADBA" d="M721.04,166.12c-1.68,4.801-3.36,9.6-4.56,14.88
	c-0.882,0.393-2.206-1.409-3.12-2.4c-7.02-7.606-15.192-15.061-24.24-21.12c-10.141-6.79-23.082-13.494-38.4-13.44
	c-17.687,0.063-29.348,9.455-37.68,19.44c-8.889,10.652-15.208,23.017-20.4,36.72c-8.613-12.024-17.147-22.973-28.319-32.64
	c-10.691-9.251-23.909-19.008-40.801-20.16c-17.248-1.176-28.143,5.968-36.96,13.68c-0.982,0.859-3.097,2.905-4.079,3.12
	c-2.07,0.451-5.305-0.444-7.921-0.72c-2.648-0.28-5.231-0.528-7.68-0.96c4.665-20.42,16.308-35.165,39.12-36.72
	c18.106-1.234,33.115,4.549,46.32,10.32c13.488,5.896,25.782,12.88,36.72,19.92c17.625-12.369,29.282-33.769,56.64-35.52
	c18.655-1.194,33.323,8.066,44.4,16.08C702.067,145.273,711.893,155.299,721.04,166.12z"/>
<path fill-rule="evenodd" clip-rule="evenodd" fill="#00ADBA" d="M575.84,260.2c-35.424,0.438-72.399,0.24-109.439,0.24
	c-5.092,0-14.258-0.992-16.32,0.96c-1.582,1.498-1.264,6.189-1.44,9.36c-1.157,20.764-1.925,39.729-3.12,60.72
	c-0.411,7.23-1.37,11.059,3.601,13.44c7.958,3.812,16.505,6.696,24.72,10.08c52.504,21.63,106.094,43.688,159.601,65.52
	c3.884,1.585,11.145,4.019,11.52,6.48c0.491,3.228-2.02,9.15-3.36,13.2c-9.446,28.543-20.827,55.477-33.6,80.88
	c-14.91,29.655-30.369,56.746-48.72,82.32c-36.556,50.943-79.883,95.012-138.96,122.88c-22.546,10.635-47.059,18.71-75.6,22.8
	c-6.023,0.863-8.785-0.186-12.96-2.4c-60.327-32.001-117.987-66.869-175.2-103.199c-22.217-14.108-46.56-29.87-69.12-45.36
	c-3.432-2.356-8.139-5.161-9.12-7.92c-0.828-2.33-0.24-7.384-0.24-11.76c0-119.331,0-237.776,0-358.32
	c0-3.884-0.648-10.301,1.2-11.52c2.947-1.945,13.627-0.72,18-0.72c40.26,0,79.398,0,120.72,0c2.542,0,7.079-0.451,7.92,1.2
	c0.655,1.285-0.996,5.26-1.92,7.68c-13.985,36.614-27.04,73.509-39.12,111.84c-16.099,51.082-32.296,102.837-42,159.12
	c-2.081,12.069-1.471,25.537,0.96,36.96c4.586,21.548,14.926,38.367,27.12,53.28c24.108,29.482,56.47,50.696,92.16,68.64
	c40.793,20.51,87.198,34.299,138.96,42.24c7.063,1.084,10.748,0.749,16.56-1.68c27.021-11.294,46.446-35.153,60-60.48
	c9.03-16.872,17.016-36.949,22.32-58.319c5.101-20.545,9.822-46.172,6.72-71.28c-5.078-41.109-22.722-71.667-51.359-89.52
	c-3.994-2.49-8.116-5.362-13.44-6.48c-2.335,3.895-1.626,9.574-1.92,14.88c-4.223,76.218-8.216,153.757-12.72,230.4
	c-0.135,2.295,0.186,4.951-1.2,6.96c-3.277,0.469-6.033-1.898-8.64-3.36c-39.363-22.075-78.793-43.22-118.561-65.52
	c-20.507-11.5-41.517-23.188-63.12-35.04c-18.066-9.913-36.813-20.035-55.44-30.48c-2.98-1.671-7.007-3.056-7.44-5.52
	c-0.418-2.385,1.677-5.235,3.12-7.92c9.009-16.762,17.116-34.564,25.44-51.121c26.77-53.243,53.856-105.917,80.64-160.08
	c1.682-3.401,5.31-13.128,8.64-13.68c3.452-0.572,9.111,3.054,12.72,4.56c27.385,11.429,54.066,22.586,81.12,33.84
	c1.944,0.809,4.163,2.102,6.48,1.68c1.057-4.328,0.019-9.727-0.48-14.88c-0.968-10.008-1.832-19.633-2.88-30.24
	c-0.382-3.869-0.534-12.891-2.88-14.4c-2.875-1.85-12.305-0.72-17.52-0.72c-17.785,0-38.176,0.194-54.48-0.24
	c0.305-2.749,3.393-3.944,5.28-5.28c27.213-19.26,54.868-38.802,82.56-58.32c4.366-3.078,8.526-6.937,12.721-8.88
	c0.484-0.225,2.348-0.434,3.84-0.24c2.731,0.354,6.874,2.775,10.32,4.32c47.811,21.429,95.558,43.888,143.52,65.52
	C573.26,257.888,575.484,258.492,575.84,260.2z M315.68,384.76c-34.495,13.598-61.248,35.743-78.72,66.721
	c-1.693,3.001-3.979,6.362-4.08,9.359c-0.111,3.307,1.897,7.484,3.36,11.04c18.534,45.063,58.262,74.747,105.84,90.72
	c5.844,1.963,12.362,3.976,18.24,1.92c13.027-4.553,20.652-22.576,25.2-36.72c5.035-15.657,8.5-33.471,10.561-51.359
	c1.989-17.276,3.074-39.753,0.479-58.081c-2.47-17.45-7.52-35.302-20.64-41.52c-4.434-2.101-12.148-2.223-17.28-1.92
	C341.93,375.908,328.455,379.724,315.68,384.76z"/>
<path fill-rule="evenodd" clip-rule="evenodd" fill="#00ADBA" d="M652.16,361c14.479-15.778,31.223-36.439,62.88-30.48
	c24.899,4.687,42.814,22.371,57.84,37.2c-1.785,4.854-3.9,9.379-4.56,15.36c-6.458-7.732-13.143-15.481-21.601-21.6
	c-8.209-5.939-18.254-11.451-30.96-12.24c-18.287-1.136-31.653,7.189-41.76,15.6c-10.762,8.957-18.609,19.609-26.16,30.96
	c-8.712-10.505-18.523-21.024-30.479-30c-11.33-8.505-24.883-16.986-43.44-17.04c-21.537-0.062-34.202,12.072-45.6,23.52
	c-3.906-1.854-7.528-3.992-11.04-6.24c11.848-19.794,28.424-36.4,56.16-39.6c17.836-2.058,33.616,4.585,45.84,11.04
	C631.876,344.132,642.698,352.666,652.16,361z"/>
<path fill-rule="evenodd" clip-rule="evenodd" fill="#00ADBA" d="M322.64,410.92c25.395-0.708,42.257,13.885,50.64,31.2
	c3.017,6.232,4.928,13.477,5.279,21.84c0.701,16.626-6.546,30.307-15.359,39.12c-9.138,9.138-20.713,16.623-37.68,16.8
	c-16.882,0.176-29.616-5.981-39.36-15.12c-9.322-8.742-16.335-20.972-16.8-37.68c-0.506-18.201,6.397-30.17,15.12-39.359
	C292.752,419.005,305.693,411.392,322.64,410.92z"/>
</svg>
